# xmcd
#
# Track frame offsets: 
#        150
#        22293
#        39269
#        59365
#        75163
#        94034
#        110385
#        133792
#        152650
#        175124
#        192171
#        208495
#        224101
#        239583
#        256649
#        269125
#        283872
#        301853
#        320276
#        336734
#
# Disc length: 4769 seconds
#
# Revision: 2
# Processed by: cddbd v1.5.2PL0 Copyright (c) Steve Scherf et al.
# Submitted via: ExactAudioCopy v0.99pb5
#
DISCID=30129f14
DTITLE=Various Artist - SZ - Diskothek - 2002
DYEAR=2002
DGENRE=Pop
TTITLE0=Common feat. Bilal and Erykah Badu - Aquarius
TTITLE1=Nelly - Hot in Herre
TTITLE2=Herbert Grönemeyer - Mensch
TTITLE3=Kettcar - Landungsbrücken raus
TTITLE4=Death In Vegas feat. Liam Gallagher - Scorpio rising
TTITLE5=Badly Drawn Boy - Something to talk about
TTITLE6=Xavier Naidoo - Brief
TTITLE7=Solomon Burke With The Blind Boys Of Alabama - None of us are 
TTITLE7=free
TTITLE8=Missy Elliott - Work it
TTITLE9=Sean Paul - Gimme the light
TTITLE10=Ron Sexsmith feat. Chris Martin - Gold in them hills
TTITLE11=Mando Diao - Mr. Moon
TTITLE12=Motorpsycho - Serpentine EP
TTITLE13=J.C.A. - I begin to wonder
TTITLE14=Klee - Erinner dich
TTITLE15=International Pony - Leaving home
TTITLE16=Gentleman - Dem gone
TTITLE17=Panjabi MC - Mundian to bach ke
TTITLE18=Notwist - One with the freaks
TTITLE19=Lambchop - Is a woman
EXTD=
EXTT0=
EXTT1=
EXTT2=
EXTT3=
EXTT4=
EXTT5=
EXTT6=
EXTT7=
EXTT8=
EXTT9=
EXTT10=
EXTT11=
EXTT12=
EXTT13=
EXTT14=
EXTT15=
EXTT16=
EXTT17=
EXTT18=
EXTT19=
PLAYORDER=
